{
	"asset":{
		"generator":"Khronos glTF Blender I/O v4.3.47",
		"version":"2.0"
	},
	"extensionsUsed":[
		"KHR_materials_specular"
	],
	"scene":0,
	"scenes":[
		{
			"name":"Scene",
			"nodes":[
				0
			]
		}
	],
	"nodes":[
		{
			"mesh":0,
			"name":"base",
			"rotation":[
				0,
				-1,
				0,
				4.371138828673793e-08
			]
		}
	],
	"materials":[
		{
			"doubleSided":true,
			"extensions":{
				"KHR_materials_specular":{
					"specularFactor":0
				}
			},
			"name":"Material-\u5851\u80f6.001",
			"pbrMetallicRoughness":{
				"baseColorFactor":[
					0.1411760002374649,
					0.1411760002374649,
					0.1411760002374649,
					1
				],
				"metallicFactor":0,
				"roughnessFactor":0.5
			}
		}
	],
	"meshes":[
		{
			"name":"mesh-a5368952-918b-488f-9073-5f125f50f17d.001",
			"primitives":[
				{
					"attributes":{
						"POSITION":0,
						"NORMAL":1
					},
					"indices":2,
					"material":0
				}
			]
		}
	],
	"accessors":[
		{
			"bufferView":0,
			"componentType":5126,
			"count":12678,
			"max":[
				0.039999961853027344,
				0.08599995821714401,
				0.2529177963733673
			],
			"min":[
				-0.04235995188355446,
				-0.02551852911710739,
				-0.05849998816847801
			],
			"type":"VEC3"
		},
		{
			"bufferView":1,
			"componentType":5126,
			"count":12678,
			"type":"VEC3"
		},
		{
			"bufferView":2,
			"componentType":5123,
			"count":32106,
			"type":"SCALAR"
		}
	],
	"bufferViews":[
		{
			"buffer":0,
			"byteLength":152136,
			"byteOffset":0,
			"target":34962
		},
		{
			"buffer":0,
			"byteLength":152136,
			"byteOffset":152136,
			"target":34962
		},
		{
			"buffer":0,
			"byteLength":64212,
			"byteOffset":304272,
			"target":34963
		}
	],
	"buffers":[
		{
			"byteLength":368484,
			"uri":"base_link.bin"
		}
	]
}
