{
	"asset":{
		"generator":"Khronos glTF Blender I/O v4.3.47",
		"version":"2.0"
	},
	"extensionsUsed":[
		"KHR_materials_specular"
	],
	"scene":0,
	"scenes":[
		{
			"name":"Scene",
			"nodes":[
				0
			]
		}
	],
	"nodes":[
		{
			"mesh":0,
			"name":"link_7",
			"rotation":[
				0.7071068286895752,
				-0.7071068286895752,
				0,
				3.090862321641907e-08
			]
		}
	],
	"materials":[
		{
			"doubleSided":true,
			"extensions":{
				"KHR_materials_specular":{
					"specularFactor":0
				}
			},
			"name":"Material-\u5851\u80f6.001",
			"pbrMetallicRoughness":{
				"baseColorFactor":[
					0.1411760002374649,
					0.1411760002374649,
					0.1411760002374649,
					1
				],
				"metallicFactor":0,
				"roughnessFactor":0.5
			}
		}
	],
	"meshes":[
		{
			"name":"mesh-a4f9121b-ce6b-474b-be4c-71fe4fee8f8b",
			"primitives":[
				{
					"attributes":{
						"POSITION":0,
						"NORMAL":1
					},
					"indices":2,
					"material":0
				}
			]
		}
	],
	"accessors":[
		{
			"bufferView":0,
			"componentType":5126,
			"count":1950,
			"max":[
				0.027999989688396454,
				0,
				0.07153183221817017
			],
			"min":[
				-0.027999989688396454,
				-0.02449994906783104,
				-0.004968105815351009
			],
			"type":"VEC3"
		},
		{
			"bufferView":1,
			"componentType":5126,
			"count":1950,
			"type":"VEC3"
		},
		{
			"bufferView":2,
			"componentType":5123,
			"count":5514,
			"type":"SCALAR"
		}
	],
	"bufferViews":[
		{
			"buffer":0,
			"byteLength":23400,
			"byteOffset":0,
			"target":34962
		},
		{
			"buffer":0,
			"byteLength":23400,
			"byteOffset":23400,
			"target":34962
		},
		{
			"buffer":0,
			"byteLength":11028,
			"byteOffset":46800,
			"target":34963
		}
	],
	"buffers":[
		{
			"byteLength":57828,
			"uri":"link7.bin"
		}
	]
}
