{
	"asset":{
		"generator":"Khronos glTF Blender I/O v4.3.47",
		"version":"2.0"
	},
	"extensionsUsed":[
		"KHR_materials_specular"
	],
	"scene":0,
	"scenes":[
		{
			"name":"Scene",
			"nodes":[
				0
			]
		}
	],
	"nodes":[
		{
			"mesh":0,
			"name":"link_8",
			"rotation":[
				0,
				0,
				-0.7071068286895752,
				0.7071067094802856
			]
		}
	],
	"materials":[
		{
			"doubleSided":true,
			"extensions":{
				"KHR_materials_specular":{
					"specularFactor":0
				}
			},
			"name":"Material-\u5851\u80f6.001",
			"pbrMetallicRoughness":{
				"baseColorFactor":[
					0.1411760002374649,
					0.1411760002374649,
					0.1411760002374649,
					1
				],
				"metallicFactor":0,
				"roughnessFactor":0.5
			}
		}
	],
	"meshes":[
		{
			"name":"mesh-a113f79a-6d9e-43f4-8757-781e31e033b8",
			"primitives":[
				{
					"attributes":{
						"POSITION":0,
						"NORMAL":1
					},
					"indices":2,
					"material":0
				}
			]
		}
	],
	"accessors":[
		{
			"bufferView":0,
			"componentType":5126,
			"count":1955,
			"max":[
				0.23996040225028992,
				0,
				0.02196412906050682
			],
			"min":[
				-0.027999989688396454,
				-0.042100779712200165,
				-0.07153183221817017
			],
			"type":"VEC3"
		},
		{
			"bufferView":1,
			"componentType":5126,
			"count":1955,
			"type":"VEC3"
		},
		{
			"bufferView":2,
			"componentType":5123,
			"count":5514,
			"type":"SCALAR"
		}
	],
	"bufferViews":[
		{
			"buffer":0,
			"byteLength":23460,
			"byteOffset":0,
			"target":34962
		},
		{
			"buffer":0,
			"byteLength":23460,
			"byteOffset":23460,
			"target":34962
		},
		{
			"buffer":0,
			"byteLength":11028,
			"byteOffset":46920,
			"target":34963
		}
	],
	"buffers":[
		{
			"byteLength":57948,
			"uri":"link8.bin"
		}
	]
}
