{
	"asset":{
		"generator":"Khronos glTF Blender I/O v4.3.47",
		"version":"2.0"
	},
	"extensionsUsed":[
		"KHR_materials_specular"
	],
	"scene":0,
	"scenes":[
		{
			"name":"Scene",
			"nodes":[
				0
			]
		}
	],
	"nodes":[
		{
			"mesh":0,
			"name":"link_1",
			"rotation":[
				0,
				-1,
				0,
				4.371138828673793e-08
			]
		}
	],
	"materials":[
		{
			"doubleSided":true,
			"extensions":{
				"KHR_materials_specular":{
					"specularFactor":0
				}
			},
			"name":"Material-\u5851\u80f6.001",
			"pbrMetallicRoughness":{
				"baseColorFactor":[
					0.1411760002374649,
					0.1411760002374649,
					0.1411760002374649,
					1
				],
				"metallicFactor":0,
				"roughnessFactor":0.5
			}
		}
	],
	"meshes":[
		{
			"name":"mesh-ab60e91b-fa22-4d93-98f9-2d12ef507f2f",
			"primitives":[
				{
					"attributes":{
						"POSITION":0,
						"NORMAL":1
					},
					"indices":2,
					"material":0
				}
			]
		}
	],
	"accessors":[
		{
			"bufferView":0,
			"componentType":5126,
			"count":21233,
			"max":[
				0.2529177963733673,
				0.15119996666908264,
				0.04235994070768356
			],
			"min":[
				-0.04074995964765549,
				0.07820002734661102,
				-0.03598605841398239
			],
			"type":"VEC3"
		},
		{
			"bufferView":1,
			"componentType":5126,
			"count":21233,
			"type":"VEC3"
		},
		{
			"bufferView":2,
			"componentType":5123,
			"count":56286,
			"type":"SCALAR"
		}
	],
	"bufferViews":[
		{
			"buffer":0,
			"byteLength":254796,
			"byteOffset":0,
			"target":34962
		},
		{
			"buffer":0,
			"byteLength":254796,
			"byteOffset":254796,
			"target":34962
		},
		{
			"buffer":0,
			"byteLength":112572,
			"byteOffset":509592,
			"target":34963
		}
	],
	"buffers":[
		{
			"byteLength":622164,
			"uri":"link1.bin"
		}
	]
}
