{
	"asset":{
		"generator":"Khronos glTF Blender I/O v4.3.47",
		"version":"2.0"
	},
	"extensionsUsed":[
		"KHR_materials_specular"
	],
	"scene":0,
	"scenes":[
		{
			"name":"Scene",
			"nodes":[
				0,
				1
			]
		}
	],
	"nodes":[
		{
			"mesh":0,
			"name":"link_4_2"
		},
		{
			"mesh":1,
			"name":"link_4_1"
		}
	],
	"materials":[
		{
			"doubleSided":true,
			"extensions":{
				"KHR_materials_specular":{
					"specularFactor":0
				}
			},
			"name":"Material-\u5851\u80f6.001",
			"pbrMetallicRoughness":{
				"baseColorFactor":[
					0.1411760002374649,
					0.1411760002374649,
					0.1411760002374649,
					1
				],
				"metallicFactor":0,
				"roughnessFactor":0.5
			}
		},
		{
			"doubleSided":true,
			"extensions":{
				"KHR_materials_specular":{
					"specularFactor":0
				}
			},
			"name":"Material-\u5851\u80f6__1_.014",
			"pbrMetallicRoughness":{
				"baseColorFactor":[
					0.1411760002374649,
					0.1411760002374649,
					0.1411760002374649,
					1
				],
				"metallicFactor":0,
				"roughnessFactor":0.5
			}
		}
	],
	"meshes":[
		{
			"name":"mesh-aeafbd67-1ffb-42da-9485-2dee9c8149c4.001",
			"primitives":[
				{
					"attributes":{
						"POSITION":0,
						"NORMAL":1
					},
					"indices":2,
					"material":0
				}
			]
		},
		{
			"name":"mesh-aeafbd67-1ffb-42da-9485-2dee9c8149c4.003",
			"primitives":[
				{
					"attributes":{
						"POSITION":3,
						"NORMAL":4
					},
					"indices":5,
					"material":1
				}
			]
		}
	],
	"accessors":[
		{
			"bufferView":0,
			"componentType":5126,
			"count":10369,
			"max":[
				0.02349996194243431,
				0.02849488891661167,
				0.028499959036707878
			],
			"min":[
				-0.028499959036707878,
				-0.035999950021505356,
				-0.03286999091506004
			],
			"type":"VEC3"
		},
		{
			"bufferView":1,
			"componentType":5126,
			"count":10369,
			"type":"VEC3"
		},
		{
			"bufferView":2,
			"componentType":5123,
			"count":31818,
			"type":"SCALAR"
		},
		{
			"bufferView":3,
			"componentType":5126,
			"count":3339,
			"max":[
				0.0339999683201313,
				0.027682360261678696,
				0.03049742802977562
			],
			"min":[
				0.02449994720518589,
				-0.035999950021505356,
				-0.030497431755065918
			],
			"type":"VEC3"
		},
		{
			"bufferView":4,
			"componentType":5126,
			"count":3339,
			"type":"VEC3"
		},
		{
			"bufferView":5,
			"componentType":5123,
			"count":12006,
			"type":"SCALAR"
		}
	],
	"bufferViews":[
		{
			"buffer":0,
			"byteLength":124428,
			"byteOffset":0,
			"target":34962
		},
		{
			"buffer":0,
			"byteLength":124428,
			"byteOffset":124428,
			"target":34962
		},
		{
			"buffer":0,
			"byteLength":63636,
			"byteOffset":248856,
			"target":34963
		},
		{
			"buffer":0,
			"byteLength":40068,
			"byteOffset":312492,
			"target":34962
		},
		{
			"buffer":0,
			"byteLength":40068,
			"byteOffset":352560,
			"target":34962
		},
		{
			"buffer":0,
			"byteLength":24012,
			"byteOffset":392628,
			"target":34963
		}
	],
	"buffers":[
		{
			"byteLength":416640,
			"uri":"link4.bin"
		}
	]
}
