{
	"asset":{
		"generator":"Khronos glTF Blender I/O v4.1.63",
		"version":"2.0"
	},
	"extensionsUsed":[
		"KHR_materials_specular",
		"KHR_materials_ior"
	],
	"scene":0,
	"scenes":[
		{
			"name":"Scene",
			"nodes":[
				0
			]
		}
	],
	"nodes":[
		{
			"mesh":0,
			"name":"Mesh"
		}
	],
	"materials":[
		{
			"doubleSided":true,
			"extensions":{
				"KHR_materials_specular":{
					"specularFactor":0
				}
			},
			"name":"Material-\u5851\u80f6__1_.004",
			"pbrMetallicRoughness":{
				"baseColorFactor":[
					0.5882350206375122,
					0.5882350206375122,
					0.5882350206375122,
					1
				],
				"metallicFactor":0,
				"roughnessFactor":0.5
			}
		},
		{
			"doubleSided":true,
			"extensions":{
				"KHR_materials_specular":{
					"specularFactor":0
				},
				"KHR_materials_ior":{
					"ior":0
				}
			},
			"name":"a0000000-0000-0000-0000-000000000000",
			"pbrMetallicRoughness":{
				"baseColorFactor":[
					0.9803919792175293,
					0.9803919792175293,
					0.9803919792175293,
					1
				],
				"roughnessFactor":0.5
			}
		},
		{
			"doubleSided":true,
			"extensions":{
				"KHR_materials_specular":{
					"specularFactor":0
				}
			},
			"name":"Material-\u5851\u80f6__2_",
			"pbrMetallicRoughness":{
				"baseColorFactor":[
					0.08627499639987946,
					0.08627499639987946,
					0.08627499639987946,
					1
				],
				"metallicFactor":0,
				"roughnessFactor":0.5
			}
		},
		{
			"doubleSided":true,
			"extensions":{
				"KHR_materials_specular":{
					"specularFactor":0
				}
			},
			"name":"Material-\u5851\u80f6__4_",
			"pbrMetallicRoughness":{
				"baseColorFactor":[
					0.5019609928131104,
					0.5019609928131104,
					0.5019609928131104,
					1
				],
				"metallicFactor":0,
				"roughnessFactor":0.5
			}
		},
		{
			"doubleSided":true,
			"extensions":{
				"KHR_materials_specular":{
					"specularFactor":0
				}
			},
			"name":"Material-\u5851\u80f6__3_.004",
			"pbrMetallicRoughness":{
				"baseColorFactor":[
					0.8156859874725342,
					0.1490200012922287,
					0.1490200012922287,
					1
				],
				"metallicFactor":0,
				"roughnessFactor":0.5
			}
		},
		{
			"doubleSided":true,
			"extensions":{
				"KHR_materials_specular":{
					"specularFactor":0
				}
			},
			"name":"Material-\u5851\u80f6.050",
			"pbrMetallicRoughness":{
				"baseColorFactor":[
					0.1411760002374649,
					0.1411760002374649,
					0.1411760002374649,
					1
				],
				"metallicFactor":0,
				"roughnessFactor":0.5
			}
		}
	],
	"meshes":[
		{
			"name":"mesh-a8afeadb-c1e3-43b8-b096-372ba9b28039",
			"primitives":[
				{
					"attributes":{
						"POSITION":0,
						"NORMAL":1
					},
					"indices":2,
					"material":0
				},
				{
					"attributes":{
						"POSITION":3,
						"NORMAL":4
					},
					"indices":5,
					"material":1
				},
				{
					"attributes":{
						"POSITION":6,
						"NORMAL":7
					},
					"indices":8,
					"material":2
				},
				{
					"attributes":{
						"POSITION":9,
						"NORMAL":10
					},
					"indices":11,
					"material":3
				},
				{
					"attributes":{
						"POSITION":12,
						"NORMAL":13
					},
					"indices":14,
					"material":4
				},
				{
					"attributes":{
						"POSITION":15,
						"NORMAL":16
					},
					"indices":17,
					"material":5
				}
			]
		}
	],
	"accessors":[
		{
			"bufferView":0,
			"componentType":5126,
			"count":27065,
			"max":[
				0.045085784047842026,
				0.3164796233177185,
				0.03157101944088936
			],
			"min":[
				-0.045085784047842026,
				-0.03149121254682541,
				-0.06495964527130127
			],
			"type":"VEC3"
		},
		{
			"bufferView":1,
			"componentType":5126,
			"count":27065,
			"type":"VEC3"
		},
		{
			"bufferView":2,
			"componentType":5123,
			"count":92526,
			"type":"SCALAR"
		},
		{
			"bufferView":3,
			"componentType":5126,
			"count":36855,
			"max":[
				0.047299984842538834,
				0.3080252408981323,
				0.022969966754317284
			],
			"min":[
				-0.047299981117248535,
				-0.02299792505800724,
				-0.057447195053100586
			],
			"type":"VEC3"
		},
		{
			"bufferView":4,
			"componentType":5126,
			"count":36855,
			"type":"VEC3"
		},
		{
			"bufferView":5,
			"componentType":5123,
			"count":83442,
			"type":"SCALAR"
		},
		{
			"bufferView":6,
			"componentType":5126,
			"count":539,
			"max":[
				0.04719996452331543,
				0.30352583527565,
				0.018467675894498825
			],
			"min":[
				-0.04719996079802513,
				0.07813037186861038,
				-0.03765401616692543
			],
			"type":"VEC3"
		},
		{
			"bufferView":7,
			"componentType":5126,
			"count":539,
			"type":"VEC3"
		},
		{
			"bufferView":8,
			"componentType":5123,
			"count":1488,
			"type":"SCALAR"
		},
		{
			"bufferView":9,
			"componentType":5126,
			"count":566,
			"max":[
				0.020499998703598976,
				0.1534702479839325,
				-0.016032669693231583
			],
			"min":[
				-0.020500000566244125,
				0.11439221352338791,
				-0.029932575300335884
			],
			"type":"VEC3"
		},
		{
			"bufferView":10,
			"componentType":5126,
			"count":566,
			"type":"VEC3"
		},
		{
			"bufferView":11,
			"componentType":5123,
			"count":1560,
			"type":"SCALAR"
		},
		{
			"bufferView":12,
			"componentType":5126,
			"count":7739,
			"max":[
				0.047299984842538834,
				0.300525963306427,
				0.01429491676390171
			],
			"min":[
				-0.047299981117248535,
				0.11205648630857468,
				-0.026726404204964638
			],
			"type":"VEC3"
		},
		{
			"bufferView":13,
			"componentType":5126,
			"count":7739,
			"type":"VEC3"
		},
		{
			"bufferView":14,
			"componentType":5123,
			"count":16020,
			"type":"SCALAR"
		},
		{
			"bufferView":15,
			"componentType":5126,
			"count":6711,
			"max":[
				0.048500001430511475,
				0.3135380446910858,
				0.028603900223970413
			],
			"min":[
				-0.048500001430511475,
				-0.02849062718451023,
				-0.035163044929504395
			],
			"type":"VEC3"
		},
		{
			"bufferView":16,
			"componentType":5126,
			"count":6711,
			"type":"VEC3"
		},
		{
			"bufferView":17,
			"componentType":5123,
			"count":20712,
			"type":"SCALAR"
		}
	],
	"bufferViews":[
		{
			"buffer":0,
			"byteLength":324780,
			"byteOffset":0,
			"target":34962
		},
		{
			"buffer":0,
			"byteLength":324780,
			"byteOffset":324780,
			"target":34962
		},
		{
			"buffer":0,
			"byteLength":185052,
			"byteOffset":649560,
			"target":34963
		},
		{
			"buffer":0,
			"byteLength":442260,
			"byteOffset":834612,
			"target":34962
		},
		{
			"buffer":0,
			"byteLength":442260,
			"byteOffset":1276872,
			"target":34962
		},
		{
			"buffer":0,
			"byteLength":166884,
			"byteOffset":1719132,
			"target":34963
		},
		{
			"buffer":0,
			"byteLength":6468,
			"byteOffset":1886016,
			"target":34962
		},
		{
			"buffer":0,
			"byteLength":6468,
			"byteOffset":1892484,
			"target":34962
		},
		{
			"buffer":0,
			"byteLength":2976,
			"byteOffset":1898952,
			"target":34963
		},
		{
			"buffer":0,
			"byteLength":6792,
			"byteOffset":1901928,
			"target":34962
		},
		{
			"buffer":0,
			"byteLength":6792,
			"byteOffset":1908720,
			"target":34962
		},
		{
			"buffer":0,
			"byteLength":3120,
			"byteOffset":1915512,
			"target":34963
		},
		{
			"buffer":0,
			"byteLength":92868,
			"byteOffset":1918632,
			"target":34962
		},
		{
			"buffer":0,
			"byteLength":92868,
			"byteOffset":2011500,
			"target":34962
		},
		{
			"buffer":0,
			"byteLength":32040,
			"byteOffset":2104368,
			"target":34963
		},
		{
			"buffer":0,
			"byteLength":80532,
			"byteOffset":2136408,
			"target":34962
		},
		{
			"buffer":0,
			"byteLength":80532,
			"byteOffset":2216940,
			"target":34962
		},
		{
			"buffer":0,
			"byteLength":41424,
			"byteOffset":2297472,
			"target":34963
		}
	],
	"buffers":[
		{
			"byteLength":2338896,
			"uri":"link2.bin"
		}
	]
}
