{
	"asset":{
		"generator":"Khronos glTF Blender I/O v4.1.63",
		"version":"2.0"
	},
	"extensionsUsed":[
		"KHR_materials_specular"
	],
	"scene":0,
	"scenes":[
		{
			"name":"Scene",
			"nodes":[
				0
			]
		}
	],
	"nodes":[
		{
			"mesh":0,
			"name":"Mesh.007"
		}
	],
	"materials":[
		{
			"doubleSided":true,
			"extensions":{
				"KHR_materials_specular":{
					"specularFactor":0
				}
			},
			"name":"Material-\u5851\u80f6__1_.005",
			"pbrMetallicRoughness":{
				"baseColorFactor":[
					0.1411760002374649,
					0.1411760002374649,
					0.1411760002374649,
					1
				],
				"metallicFactor":0,
				"roughnessFactor":0.5
			}
		},
		{
			"doubleSided":true,
			"extensions":{
				"KHR_materials_specular":{
					"specularFactor":0
				}
			},
			"name":"Material-\u5851\u80f6.054",
			"pbrMetallicRoughness":{
				"baseColorFactor":[
					0.5882350206375122,
					0.5882350206375122,
					0.5882350206375122,
					1
				],
				"metallicFactor":0,
				"roughnessFactor":0.5
			}
		},
		{
			"doubleSided":true,
			"extensions":{
				"KHR_materials_specular":{
					"specularFactor":0
				}
			},
			"name":"Material-\u5851\u80f6__3_.024",
			"pbrMetallicRoughness":{
				"baseColorFactor":[
					0.8156859874725342,
					0.1490200012922287,
					0.1490200012922287,
					1
				],
				"metallicFactor":0,
				"roughnessFactor":0.5
			}
		}
	],
	"meshes":[
		{
			"name":"mesh-aa2d7373-b6df-4477-912f-c4da89e70a66.002",
			"primitives":[
				{
					"attributes":{
						"POSITION":0,
						"NORMAL":1
					},
					"indices":2,
					"material":0
				},
				{
					"attributes":{
						"POSITION":3,
						"NORMAL":4
					},
					"indices":5,
					"material":1
				},
				{
					"attributes":{
						"POSITION":6,
						"NORMAL":7
					},
					"indices":8,
					"material":2
				}
			]
		}
	],
	"accessors":[
		{
			"bufferView":0,
			"componentType":5126,
			"count":6414,
			"max":[
				0.021793179214000702,
				0.1327751725912094,
				-0.016463009640574455
			],
			"min":[
				-0.021793179214000702,
				0.06835497170686722,
				-0.027784939855337143
			],
			"type":"VEC3"
		},
		{
			"bufferView":1,
			"componentType":5126,
			"count":6414,
			"type":"VEC3"
		},
		{
			"bufferView":2,
			"componentType":5123,
			"count":8877,
			"type":"SCALAR"
		},
		{
			"bufferView":3,
			"componentType":5126,
			"count":57497,
			"max":[
				0.04074995964765549,
				0.2147628366947174,
				0.029983334243297577
			],
			"min":[
				-0.039999958127737045,
				-0.029999246820807457,
				-0.05044025927782059
			],
			"type":"VEC3"
		},
		{
			"bufferView":4,
			"componentType":5126,
			"count":57497,
			"type":"VEC3"
		},
		{
			"bufferView":5,
			"componentType":5123,
			"count":153231,
			"type":"SCALAR"
		},
		{
			"bufferView":6,
			"componentType":5126,
			"count":92,
			"max":[
				0.01903551071882248,
				0.10566224157810211,
				-0.023744583129882812
			],
			"min":[
				-0.019793149083852768,
				0.09467542916536331,
				-0.025287188589572906
			],
			"type":"VEC3"
		},
		{
			"bufferView":7,
			"componentType":5126,
			"count":92,
			"type":"VEC3"
		},
		{
			"bufferView":8,
			"componentType":5123,
			"count":102,
			"type":"SCALAR"
		}
	],
	"bufferViews":[
		{
			"buffer":0,
			"byteLength":76968,
			"byteOffset":0,
			"target":34962
		},
		{
			"buffer":0,
			"byteLength":76968,
			"byteOffset":76968,
			"target":34962
		},
		{
			"buffer":0,
			"byteLength":17754,
			"byteOffset":153936,
			"target":34963
		},
		{
			"buffer":0,
			"byteLength":689964,
			"byteOffset":171692,
			"target":34962
		},
		{
			"buffer":0,
			"byteLength":689964,
			"byteOffset":861656,
			"target":34962
		},
		{
			"buffer":0,
			"byteLength":306462,
			"byteOffset":1551620,
			"target":34963
		},
		{
			"buffer":0,
			"byteLength":1104,
			"byteOffset":1858084,
			"target":34962
		},
		{
			"buffer":0,
			"byteLength":1104,
			"byteOffset":1859188,
			"target":34962
		},
		{
			"buffer":0,
			"byteLength":204,
			"byteOffset":1860292,
			"target":34963
		}
	],
	"buffers":[
		{
			"byteLength":1860496,
			"uri":"link3.bin"
		}
	]
}
