{
	"asset":{
		"generator":"Khronos glTF Blender I/O v4.3.47",
		"version":"2.0"
	},
	"extensionsUsed":[
		"KHR_materials_specular"
	],
	"scene":0,
	"scenes":[
		{
			"name":"Scene",
			"nodes":[
				0
			]
		}
	],
	"nodes":[
		{
			"mesh":0,
			"name":"link_6",
			"rotation":[
				0.70710688829422,
				0,
				0,
				0.7071066498756409
			]
		}
	],
	"materials":[
		{
			"doubleSided":true,
			"extensions":{
				"KHR_materials_specular":{
					"specularFactor":0
				}
			},
			"name":"Material-\u5851\u80f6.001",
			"pbrMetallicRoughness":{
				"baseColorFactor":[
					0.1411760002374649,
					0.1411760002374649,
					0.1411760002374649,
					1
				],
				"metallicFactor":0,
				"roughnessFactor":0.5
			}
		}
	],
	"meshes":[
		{
			"name":"mesh-a0915fb4-bd97-47f0-a855-4bacbe508934",
			"primitives":[
				{
					"attributes":{
						"POSITION":0,
						"NORMAL":1
					},
					"indices":2,
					"material":0
				}
			]
		}
	],
	"accessors":[
		{
			"bufferView":0,
			"componentType":5126,
			"count":14946,
			"max":[
				0.07249999046325684,
				0.15749996900558472,
				0.030499989166855812
			],
			"min":[
				-0.07249999046325684,
				0.09049999713897705,
				-0.039999958127737045
			],
			"type":"VEC3"
		},
		{
			"bufferView":1,
			"componentType":5126,
			"count":14946,
			"type":"VEC3"
		},
		{
			"bufferView":2,
			"componentType":5123,
			"count":40266,
			"type":"SCALAR"
		}
	],
	"bufferViews":[
		{
			"buffer":0,
			"byteLength":179352,
			"byteOffset":0,
			"target":34962
		},
		{
			"buffer":0,
			"byteLength":179352,
			"byteOffset":179352,
			"target":34962
		},
		{
			"buffer":0,
			"byteLength":80532,
			"byteOffset":358704,
			"target":34963
		}
	],
	"buffers":[
		{
			"byteLength":439236,
			"uri":"link6.bin"
		}
	]
}
