{
	"asset":{
		"generator":"Khronos glTF Blender I/O v4.3.47",
		"version":"2.0"
	},
	"extensionsUsed":[
		"KHR_materials_specular",
		"KHR_materials_ior"
	],
	"scene":0,
	"scenes":[
		{
			"name":"Scene",
			"nodes":[
				0,
				1
			]
		}
	],
	"nodes":[
		{
			"mesh":0,
			"name":"link_5_1",
			"rotation":[
				0.70710688829422,
				0,
				0,
				0.7071066498756409
			]
		},
		{
			"mesh":1,
			"name":"link_5_2",
			"rotation":[
				0.70710688829422,
				0,
				0,
				0.7071066498756409
			]
		}
	],
	"materials":[
		{
			"doubleSided":true,
			"extensions":{
				"KHR_materials_specular":{
					"specularFactor":0
				}
			},
			"name":"Material-\u5851\u80f6__1_.015",
			"pbrMetallicRoughness":{
				"baseColorFactor":[
					0.1411760002374649,
					0.1411760002374649,
					0.1411760002374649,
					1
				],
				"metallicFactor":0,
				"roughnessFactor":0.5
			}
		},
		{
			"doubleSided":true,
			"extensions":{
				"KHR_materials_specular":{
					"specularFactor":0
				}
			},
			"name":"Material-\u5851\u80f6.001",
			"pbrMetallicRoughness":{
				"baseColorFactor":[
					0.1411760002374649,
					0.1411760002374649,
					0.1411760002374649,
					1
				],
				"metallicFactor":0,
				"roughnessFactor":0.5
			}
		},
		{
			"doubleSided":true,
			"extensions":{
				"KHR_materials_specular":{
					"specularFactor":0
				},
				"KHR_materials_ior":{
					"ior":0
				}
			},
			"name":"a0000000-0000-0000-0000-000000000000.007",
			"pbrMetallicRoughness":{
				"baseColorFactor":[
					0.9803919792175293,
					0.9803919792175293,
					0.9803919792175293,
					1
				],
				"roughnessFactor":0.5
			}
		}
	],
	"meshes":[
		{
			"name":"mesh-d0886ce9-b2d7-4e71-8f1e-0e1310be23de.001",
			"primitives":[
				{
					"attributes":{
						"POSITION":0,
						"NORMAL":1
					},
					"indices":2,
					"material":0
				},
				{
					"attributes":{
						"POSITION":3,
						"NORMAL":4
					},
					"indices":5,
					"material":1
				}
			]
		},
		{
			"name":"mesh-d0886ce9-b2d7-4e71-8f1e-0e1310be23de.003",
			"primitives":[
				{
					"attributes":{
						"POSITION":6,
						"NORMAL":7
					},
					"indices":8,
					"material":2
				}
			]
		}
	],
	"accessors":[
		{
			"bufferView":0,
			"componentType":5126,
			"count":3975,
			"max":[
				-0.023914966732263565,
				0.04427468031644821,
				0.02999120205640793
			],
			"min":[
				-0.03241495043039322,
				-0.023499958217144012,
				-0.029997458681464195
			],
			"type":"VEC3"
		},
		{
			"bufferView":1,
			"componentType":5126,
			"count":3975,
			"type":"VEC3"
		},
		{
			"bufferView":2,
			"componentType":5123,
			"count":16428,
			"type":"SCALAR"
		},
		{
			"bufferView":3,
			"componentType":5126,
			"count":15068,
			"max":[
				0.028501523658633232,
				0.0910000205039978,
				0.028499959036707878
			],
			"min":[
				-0.028498446568846703,
				-0.023000000044703484,
				-0.028499959036707878
			],
			"type":"VEC3"
		},
		{
			"bufferView":4,
			"componentType":5126,
			"count":15068,
			"type":"VEC3"
		},
		{
			"bufferView":5,
			"componentType":5123,
			"count":40092,
			"type":"SCALAR"
		},
		{
			"bufferView":6,
			"componentType":5126,
			"count":6286,
			"max":[
				0.020269222557544708,
				0.040770288556814194,
				0.007748482748866081
			],
			"min":[
				-0.007170720957219601,
				0.023988479748368263,
				-0.027424270287156105
			],
			"type":"VEC3"
		},
		{
			"bufferView":7,
			"componentType":5126,
			"count":6286,
			"type":"VEC3"
		},
		{
			"bufferView":8,
			"componentType":5123,
			"count":12348,
			"type":"SCALAR"
		}
	],
	"bufferViews":[
		{
			"buffer":0,
			"byteLength":47700,
			"byteOffset":0,
			"target":34962
		},
		{
			"buffer":0,
			"byteLength":47700,
			"byteOffset":47700,
			"target":34962
		},
		{
			"buffer":0,
			"byteLength":32856,
			"byteOffset":95400,
			"target":34963
		},
		{
			"buffer":0,
			"byteLength":180816,
			"byteOffset":128256,
			"target":34962
		},
		{
			"buffer":0,
			"byteLength":180816,
			"byteOffset":309072,
			"target":34962
		},
		{
			"buffer":0,
			"byteLength":80184,
			"byteOffset":489888,
			"target":34963
		},
		{
			"buffer":0,
			"byteLength":75432,
			"byteOffset":570072,
			"target":34962
		},
		{
			"buffer":0,
			"byteLength":75432,
			"byteOffset":645504,
			"target":34962
		},
		{
			"buffer":0,
			"byteLength":24696,
			"byteOffset":720936,
			"target":34963
		}
	],
	"buffers":[
		{
			"byteLength":745632,
			"uri":"link5.bin"
		}
	]
}
